# xmcd
#
# Track frame offsets:
#	150
#	9901
#	21826
#	33601
#	47797
#	62122
#	75398
#	91597
#	101425
#	114477
#	129705
#	142230
#	153221
#	167621
#
# Disc length: 2411 seconds
#
# Revision: 0
# Processed by: cddbd v1.5.2PL0 Copyright (c) Steve Scherf et al.
# Submitted via: EZCDAudioConverter 1.0.6.1
#
DISCID=a909690e
DTITLE=Willis Prudhomme and the Zydeco Express - Living Legend
DYEAR=2006
DGENRE=blues
TTITLE0=Have fun tonite
TTITLE1=Good time woman
TTITLE2=Ya ya
TTITLE3=Madeline
TTITLE4=Yesterday
TTITLE5=Used to love you
TTITLE6=Oh bye Moreau
TTITLE7=Digga la
TTITLE8=Louisiana Women
TTITLE9=What a price
TTITLE10=Trailride
TTITLE11=Butt thing
TTITLE12=Oh Mom 
TTITLE13=Need it right now
EXTD=
EXTT0=
EXTT1=
EXTT2=
EXTT3=
EXTT4=
EXTT5=
EXTT6=
EXTT7=
EXTT8=
EXTT9=
EXTT10=
EXTT11=
EXTT12=
EXTT13=
PLAYORDER=
